# xmcd
#
# Track frame offsets: 
#        150
#        15477
#        25112
#        39952
#        56205
#        66722
#        84605
#        95417
#        103900
#        119685
#        131680
#        148742
#        165730
#        178425
#        189052
#        205572
#        216675
#        237727
#        254445
#        267730
#        311657
#
# Disc length: 4439 seconds
#
# Revision: 5
# Processed by: cddbd v1.5.2PL0 Copyright (c) Steve Scherf et al.
# Submitted via: ExactAudioCopy v1.0b2
#
DISCID=4d115515
DTITLE=Various Artist - Space Battleship Yamato Eternal Edition File No.8
DYEAR=2001
DGENRE=Soundtrack
TTITLE0=Two Galaxies
TTITLE1=Flooding Planet Deingil
TTITLE2=Mobile Fortress
TTITLE3=History of the Uruk
TTITLE4=Yuki's Sorrow
TTITLE5=Pluto Naval Battle
TTITLE6=Leader Lugal's Fight
TTITLE7=Hyper Radiation Missiles
TTITLE8=Pathetic Bolero
TTITLE9=Losing Yamato
TTITLE10=Water Planet Aquarius
TTITLE11=Mysterious Planet Aquarius
TTITLE12=Wondrous Neutrino Beam
TTITLE13=Robot Horse Attack
TTITLE14=FIGHT Cosmo Tiger II
TTITLE15=Great Devil
TTITLE16=Misfortune of the Deingil Boy
TTITLE17=Shima's Thoughts
TTITLE18=Okita and Kodai
TTITLE19=SYMPHONY OF THE AQUARIUS
TTITLE20=Aquarius 4.5 Billion Years
EXTD=YEAR: 2001.3.1
EXTT0=
EXTT1=
EXTT2=
EXTT3=
EXTT4=
EXTT5=
EXTT6=
EXTT7=
EXTT8=
EXTT9=
EXTT10=
EXTT11=
EXTT12=
EXTT13=
EXTT14=
EXTT15=
EXTT16=
EXTT17=
EXTT18=
EXTT19=
EXTT20=
PLAYORDER=
